HIERARCHY
ROOT SpineBase
{
  OFFSET 0.000000 0.000000 0.000000
  CHANNELS 6 Xposition Yposition Zposition Zrotation Xrotation Yrotation
  JOINT SpineMid
  {
    OFFSET 0.000000 35.722894 0.000000
    CHANNELS 3 Zrotation Xrotation Yrotation
    JOINT SpineShoulder
    {
      OFFSET 0.138001 26.415943 -0.914718
      CHANNELS 3 Zrotation Xrotation Yrotation
      JOINT Neck
      {
        OFFSET 0.075648 8.709189 -0.670054
        CHANNELS 3 Zrotation Xrotation Yrotation
        JOINT Head
        {
          OFFSET -7.120044 10.714084 4.198965
          CHANNELS 3 Zrotation Xrotation Yrotation
          End Site
          {
            OFFSET 0 0 0
          }
        }
      }
      JOINT ShoulderLeft
      {
        OFFSET -9.456665 -11.253902 10.983510
        CHANNELS 3 Zrotation Xrotation Yrotation
        JOINT ElbowLeft
        {
          OFFSET 22.769006 -18.060554 2.836642
          CHANNELS 3 Zrotation Xrotation Yrotation
          JOINT WristLeft
          {
            OFFSET -18.141269 -18.034874 -15.470716
            CHANNELS 3 Zrotation Xrotation Yrotation
            JOINT HandLeft
            {
              OFFSET -6.156727 -11.755343 -6.631434
              CHANNELS 3 Zrotation Xrotation Yrotation
              JOINT HandTipLeft
              {
                OFFSET -5.365808 -6.229029 0.240986
                CHANNELS 3 Zrotation Xrotation Yrotation
                End Site
                {
                  OFFSET 0 0 0
                }
              }
              JOINT ThumbLeft
              {
                OFFSET -5.190775 4.718941 0.180000
                CHANNELS 3 Zrotation Xrotation Yrotation
                End Site
                {
                  OFFSET 0 0 0
                }
              }
            }
          }
        }
      }
      JOINT ShoulderRight
      {
        OFFSET 6.833594 -5.286078 -11.506053
        CHANNELS 3 Zrotation Xrotation Yrotation
        JOINT ElbowRight
        {
          OFFSET -0.999547 -26.444537 -5.733580
          CHANNELS 3 Zrotation Xrotation Yrotation
          JOINT WristRight
          {
            OFFSET -3.364592 -20.964411 0.547868
            CHANNELS 3 Zrotation Xrotation Yrotation
            JOINT HandRight
            {
              OFFSET -1.647013 -6.795914 3.682086
              CHANNELS 3 Zrotation Xrotation Yrotation
              JOINT HandTipRight
              {
                OFFSET -1.535342 -8.262075 -2.218739
                CHANNELS 3 Zrotation Xrotation Yrotation
                End Site
                {
                  OFFSET 0 0 0
                }
              }
              JOINT ThumbRight
              {
                OFFSET -6.844719 4.077322 -0.031988
                CHANNELS 3 Zrotation Xrotation Yrotation
                End Site
                {
                  OFFSET 0 0 0
                }
              }
            }
          }
        }
      }
    }
  }
  JOINT HipLeft
  {
    OFFSET -4.376060 0.373496 -3.570370
    CHANNELS 3 Zrotation Xrotation Yrotation
    JOINT KneeLeft
    {
      OFFSET 16.696111 -33.599578 24.382009
      CHANNELS 3 Zrotation Xrotation Yrotation
      JOINT AnkleLeft
      {
        OFFSET 7.081744 -33.320355 1.954251
        CHANNELS 3 Zrotation Xrotation Yrotation
        JOINT FootLeft
        {
          OFFSET -3.752687 -1.157881 -16.777962
          CHANNELS 3 Zrotation Xrotation Yrotation
          End Site
          {
            OFFSET 0 0 0
          }
        }
      }
    }
  }
  JOINT HipRight
  {
    OFFSET 4.754189 1.735600 -4.225906
    CHANNELS 3 Zrotation Xrotation Yrotation
    JOINT KneeRight
    {
      OFFSET -1.980373 -36.801694 1.819292
      CHANNELS 3 Zrotation Xrotation Yrotation
      JOINT AnkleRight
      {
        OFFSET 10.381260 -31.982495 0.545725
        CHANNELS 3 Zrotation Xrotation Yrotation
        JOINT FootRight
        {
          OFFSET -8.787899 -4.474942 -9.314665
          CHANNELS 3 Zrotation Xrotation Yrotation
          End Site
          {
            OFFSET 0 0 0
          }
        }
      }
    }
  }
}
MOTION
Frames: 9
Frame Time: 0.033333
-15.048593 77.634637 308.573165 11.453556 4.515331 47.444720 0.663538 -0.313880 -47.500653 -0.165889 -0.004747 0.481281 -2.308668 0.549165 -1.229857 0.000000 0.000000 0.000000 -56.817123 12.381642 32.760620 31.420449 -31.590316 -20.531300 -15.005219 8.922116 4.523335 74.544569 14.806504 -47.373872 0.000000 0.000000 0.000000 0.000000 0.000000 0.000000 -7.290128 -4.339284 -2.039939 5.315299 -2.345704 1.874465 -3.744762 5.107367 1.893663 1.103449 -12.663751 -2.163708 0.000000 0.000000 0.000000 0.000000 0.000000 0.000000 -21.394096 28.640040 -59.479862 26.174933 -2.779811 15.719162 2.356374 4.101707 -41.904549 0.000000 0.000000 0.000000 -12.101206 -4.479170 -46.638624 -8.863354 7.388372 -0.078022 3.559735 -0.918604 -0.401067 0.000000 0.000000 0.000000
-16.367428 77.407982 309.760852 12.558315 4.607173 45.444029 0.254382 0.030190 -45.550638 -0.359251 -0.044640 0.487610 -1.706180 1.286038 -1.210977 0.000000 0.000000 0.000000 -61.287998 12.535233 36.155142 33.893640 -34.455346 -21.738652 -16.755395 5.377624 6.627561 76.315192 13.899950 -49.967817 0.000000 0.000000 0.000000 0.000000 0.000000 0.000000 -7.455053 -4.422631 -2.107635 5.763483 -2.579244 2.028794 -1.535889 8.261409 2.323591 -2.730058 -14.658194 -3.147022 0.000000 0.000000 0.000000 0.000000 0.000000 0.000000 -22.580483 28.363854 -56.632265 25.401086 -3.495026 15.120716 2.664757 4.538735 -42.543320 0.000000 0.000000 0.000000 -10.874087 -4.212161 -44.635298 -9.760120 6.312237 -0.090518 3.328681 -1.081726 -1.160686 0.000000 0.000000 0.000000
-17.612781 76.881595 311.125671 13.274744 4.316375 40.723459 0.238436 0.086817 -40.805131 -0.177212 0.101282 0.522358 -1.378534 2.082644 -1.364486 0.000000 0.000000 0.000000 -62.862364 12.720496 36.909910 34.271075 -35.015150 -22.040350 -14.221654 2.987108 6.156703 71.251287 12.625938 -44.349480 0.000000 0.000000 0.000000 0.000000 0.000000 0.000000 -8.430568 -3.885527 -2.220345 6.474201 -3.109445 2.150788 1.632736 11.599099 2.902289 -7.208739 -17.181916 -4.794686 0.000000 0.000000 0.000000 0.000000 0.000000 0.000000 -24.630285 26.787077 -51.023800 24.764929 -3.976292 14.550078 2.871321 5.807557 -42.995900 0.000000 0.000000 0.000000 -9.001692 -3.676210 -39.997822 -10.040417 4.824669 -0.135878 3.051077 -1.112339 -2.546980 0.000000 0.000000 0.000000
-18.939833 76.712588 312.839877 14.367954 3.514536 38.420761 0.160709 0.224696 -38.419571 -0.061619 0.252623 0.558781 -1.737777 3.082644 -1.580076 0.000000 0.000000 0.000000 -60.155179 12.229705 30.668793 34.462056 -29.987236 -18.136655 -13.936338 5.417915 5.218109 69.339380 13.109684 -41.944656 0.000000 0.000000 0.000000 0.000000 0.000000 0.000000 -8.221946 -5.370236 -2.345677 5.181004 -1.275105 2.121138 5.066753 14.780538 3.207566 -9.496142 -17.568131 -7.018147 0.000000 0.000000 0.000000 0.000000 0.000000 0.000000 -24.895046 27.449148 -47.230815 24.180020 -6.166356 13.546925 3.148365 7.117817 -43.223974 0.000000 0.000000 0.000000 -7.120545 -1.851525 -37.750637 -9.922760 2.475416 -0.408592 1.900815 -0.707085 -2.677784 0.000000 0.000000 0.000000
-20.276988 75.882916 314.075298 13.665458 2.888511 33.292478 0.236001 0.231133 -33.214815 0.171895 0.291156 0.554875 0.583740 4.102793 -2.023787 0.000000 0.000000 0.000000 -60.151108 12.681391 31.911248 34.201707 -30.554230 -18.618960 -13.946039 5.407515 5.207424 69.587840 13.018763 -41.983026 0.000000 0.000000 0.000000 0.000000 0.000000 0.000000 -10.062009 -2.494592 -2.123192 7.511212 -3.767196 2.111398 9.529522 17.746191 3.791413 -15.230738 -20.055209 -9.444649 0.000000 0.000000 0.000000 0.000000 0.000000 0.000000 -25.345138 24.763257 -41.353151 23.771045 -6.401094 12.816963 2.565704 7.959921 -43.224950 0.000000 0.000000 0.000000 -4.077821 -1.595422 -32.738713 -10.823717 1.600179 -0.255334 0.641420 1.029625 -5.719528 0.000000 0.000000 0.000000
-21.120071 73.967737 314.723461 12.369443 2.618682 30.393423 0.171356 0.288151 -30.299214 0.101461 0.049482 0.521533 2.342672 5.669932 -1.532059 0.000000 0.000000 0.000000 -59.281160 14.151620 37.646158 30.902543 -34.091331 -22.885357 -13.972146 5.377933 5.165527 70.245432 12.741179 -42.023468 0.000000 0.000000 0.000000 0.000000 0.000000 0.000000 -13.501102 4.477141 -1.258815 12.704596 -10.140801 2.658659 13.589007 19.396615 4.690203 -20.774725 -21.779797 -11.921701 0.000000 0.000000 0.000000 0.000000 0.000000 0.000000 -24.981640 21.943788 -38.633309 23.701011 -5.088172 12.650221 1.761402 8.561127 -43.173935 0.000000 0.000000 0.000000 -2.365073 -2.492650 -29.766043 -10.128568 2.311116 -0.070718 0.548645 0.528292 -8.543100 0.000000 0.000000 0.000000
-21.036842 71.329712 314.979820 10.631082 2.508868 28.391207 -0.147877 0.308141 -28.303473 -0.122180 -0.028494 0.421589 2.857459 6.604265 -0.400223 0.000000 0.000000 0.000000 -57.995796 16.540137 47.916076 23.194827 -39.922570 -32.341380 -14.012163 5.331543 5.094501 71.222461 12.320336 -42.093825 0.000000 0.000000 0.000000 0.000000 0.000000 0.000000 -19.897832 15.368306 1.499721 21.356071 -20.617848 4.796824 17.309768 19.670880 5.945645 -26.581351 -21.467422 -14.125441 0.000000 0.000000 0.000000 0.000000 0.000000 0.000000 -24.682247 18.997722 -37.709425 24.243043 -2.702881 13.147254 0.891315 9.076921 -42.996664 0.000000 0.000000 0.000000 -2.374837 -3.684995 -27.687986 -7.048896 4.523819 0.265783 1.481326 -2.362026 -11.863219 0.000000 0.000000 0.000000
-19.950328 68.378975 314.739843 8.854131 2.749879 28.371543 -0.400021 0.228704 -28.318723 -0.440764 -0.044844 0.305934 2.648769 6.991491 1.018912 0.000000 0.000000 0.000000 -56.507239 20.181106 63.102454 6.717789 -45.519050 -50.878686 -14.061383 5.277338 5.007129 72.383819 11.811329 -42.159853 0.000000 0.000000 0.000000 0.000000 0.000000 0.000000 -30.995007 28.060034 7.979209 34.625921 -33.393992 10.373457 20.096596 19.763478 6.810238 -30.683679 -22.124980 -15.312920 0.000000 0.000000 0.000000 0.000000 0.000000 0.000000 -24.888314 16.553768 -39.764126 25.304184 0.735598 14.376363 0.202463 9.152773 -42.879333 0.000000 0.000000 0.000000 -4.883460 -5.386503 -27.722956 -1.681621 8.423267 0.483245 3.420212 -7.970095 -14.751225 0.000000 0.000000 0.000000
-18.408295 65.079496 314.513301 7.439875 3.015913 28.315237 -1.232973 0.277072 -28.316357 -1.190048 0.010294 0.134682 2.995344 7.474958 2.586445 0.000000 0.000000 0.000000 -53.643719 25.707531 81.820433 -18.005500 -44.109527 -76.750948 -14.115125 5.221370 4.913868 73.621808 11.265284 -42.214010 0.000000 0.000000 0.000000 0.000000 0.000000 0.000000 -46.169866 38.374965 19.425419 53.365588 -43.912100 21.085092 21.497858 19.840716 7.342148 -33.875966 -24.227383 -15.825883 0.000000 0.000000 0.000000 0.000000 0.000000 0.000000 -26.276893 14.147499 -42.489896 26.876348 5.716976 16.125374 -0.781662 8.705793 -42.923649 0.000000 0.000000 0.000000 -9.175870 -6.436821 -28.010212 5.767226 12.993784 0.303546 6.470570 -16.770320 -16.631275 0.000000 0.000000 0.000000
